<svg width="24" height="24" viewBox="0 0 24 24" fill="none" xmlns="http://www.w3.org/2000/svg">
<path fill-rule="evenodd" clip-rule="evenodd" d="M2 2C2 1.44772 2.44772 1 3 1H7C7.55229 1 8 1.44772 8 2V3H9V2C9 1.44772 9.44772 1 10 1H14C14.5523 1 15 1.44772 15 2V3H16V2C16 1.44772 16.4477 1 17 1H21C21.5523 1 22 1.44772 22 2V8C22 8.37877 21.786 8.72504 21.4472 8.89443L18 10.618V17.382L19.4472 18.1056C19.6029 18.1834 19.7355 18.3005 19.8321 18.4453L21.8321 21.4453C22.0366 21.7522 22.0557 22.1467 21.8817 22.4719C21.7077 22.797 21.3688 23 21 23H18C17.4477 23 17 22.5523 17 22C17 21.4477 17.4477 21 18 21H19.1315L18.3153 19.7757L16.5722 18.9041C16.5278 18.8831 16.4853 18.8589 16.4448 18.8319C16.2095 18.6745 16.0447 18.4199 16.0078 18.1255C16.0016 18.0769 15.999 18.0276 16 17.9782V11H8V17.9784C8.00103 18.0273 7.99844 18.076 7.99238 18.1241C7.97429 18.2703 7.92466 18.4066 7.85052 18.5262C7.74933 18.6894 7.60247 18.8213 7.42779 18.9041L5.68474 19.7757L4.86852 21H9.99991C9.99988 21 9.99994 21 9.99991 21C10.0414 21 10.0825 21.0025 10.1227 21.0075C10.3571 21.0361 10.5665 21.1459 10.7218 21.3079L11.1032 21.6932C11.2127 21.8027 11.3563 21.8572 11.4999 21.8569C11.6434 21.8572 11.787 21.8027 11.8966 21.6932L12.2927 21.293C12.4737 21.112 12.7236 21 12.9998 21C13.5521 21 13.9997 21.4477 13.9997 21.9999C13.9997 22.5522 13.5521 22.9998 12.9998 22.9998C12.7236 22.9998 12.4737 22.888 12.2927 22.707L11.8966 22.3068C11.787 22.1973 11.6434 22.1428 11.4999 22.1431C11.3563 22.1428 11.2127 22.1973 11.1032 22.3068L10.7217 22.6922C10.5397 22.8819 10.2837 23 10 23H3C2.63121 23 2.29235 22.797 2.11833 22.4719C1.94431 22.1467 1.96338 21.7522 2.16795 21.4453L4.16795 18.4453C4.26448 18.3005 4.39714 18.1834 4.55279 18.1056L6 17.382V10.618L2.55279 8.89443C2.21401 8.72504 2 8.37877 2 8V2ZM20 7.38197L16.7639 9H7.23607L4 7.38197V3H6V4C6 4.55228 6.44772 5 7 5H10C10.2652 5 10.5196 4.89464 10.7071 4.70711C10.8946 4.51957 11 4.26522 11 4V3H13V4C13 4.55228 13.4477 5 14 5H17C17.5523 5 18 4.55228 18 4V3H20V7.38197Z" fill="#FF5640"/>
</svg>
