<svg width="24" height="24" viewBox="0 0 24 24" fill="none" xmlns="http://www.w3.org/2000/svg">
<path d="M22.7073 6.70711C23.0978 6.31658 23.0978 5.68342 22.7073 5.29289C22.3168 4.90237 21.6836 4.90237 21.2931 5.29289L9.00018 17.5858L4.836 13.4218C4.83131 13.4171 4.82659 13.4125 4.82184 13.4079C4.62735 13.2168 4.3742 13.1214 4.12105 13.1214L3.55794 13.1242C3.40303 13.1242 3.26297 13.0613 3.1617 12.9595C3.05993 12.8582 2.99694 12.7182 2.99694 12.5633L2.99981 12.0001C2.99981 11.7442 2.90228 11.4883 2.70697 11.293C2.31646 10.9025 1.68338 10.9025 1.29288 11.293C0.902374 11.6835 0.902374 12.3166 1.29288 12.7071C1.48819 12.9024 1.74399 13 1.99992 13L2.56304 12.9972C2.71794 12.9972 2.858 13.0601 2.95928 13.1619C3.06105 13.2632 3.12403 13.4033 3.12403 13.5582L3.12116 14.1213C3.12116 14.3772 3.21882 14.633 3.41413 14.8283L3.41641 14.8306C3.4182 14.8324 3.42 14.8342 3.42181 14.836L8.2931 19.7071C8.68363 20.0976 9.31678 20.0976 9.7073 19.7071L22.7073 6.70711Z" fill="#FF5640"/>
</svg>
