<svg width="24" height="24" viewBox="0 0 24 24" fill="none" xmlns="http://www.w3.org/2000/svg">
<path d="M3 12C3 7.03309 7.04317 3 12.0388 3C14.333 3 16.425 3.84971 18.0188 5.25101C18.4336 5.61568 19.0654 5.57506 19.4301 5.16029C19.7948 4.74552 19.7541 4.11366 19.3394 3.74899C17.3938 2.03847 14.8366 1 12.0388 1C5.94591 1 1 5.92122 1 12C1 18.0788 5.94591 23 12.0388 23C17.6657 23 22.3125 18.8042 22.9923 13.3742C22.9942 13.3589 22.9957 13.3436 22.9969 13.3284C23.0049 13.2649 23.0068 13.1998 23.0022 13.1336C22.9829 12.8581 22.8537 12.6166 22.6606 12.4487L22.2337 12.0814C22.1168 11.9798 22.0524 11.8404 22.0427 11.6971C22.0324 11.5539 22.0767 11.4069 22.1784 11.29L22.55 10.8669C22.7179 10.6737 22.8122 10.4166 22.7929 10.141C22.7544 9.59012 22.2766 9.17478 21.7257 9.21331C21.1748 9.25183 20.7594 9.72962 20.7979 10.2805C20.8172 10.5561 20.9462 10.7976 21.1394 10.9655L21.5662 11.3328C21.6831 11.4344 21.7475 11.5738 21.7572 11.7171C21.7675 11.8603 21.7232 12.0073 21.6216 12.1242L21.25 12.5473C21.112 12.7061 21.0238 12.908 21.0075 13.1279C20.4513 17.5627 16.6499 21 12.0388 21C7.04317 21 3 16.9669 3 12Z" fill="#FF5640"/>
<path d="M15.7071 9.70711C16.0976 9.31658 16.0976 8.68342 15.7071 8.29289C15.3166 7.90237 14.6834 7.90237 14.2929 8.29289L12 10.5858L9.70711 8.29289C9.31658 7.90237 8.68342 7.90237 8.29289 8.29289C7.90237 8.68342 7.90237 9.31658 8.29289 9.70711L10.5858 12L8.29289 14.2929C7.90237 14.6834 7.90237 15.3166 8.29289 15.7071C8.68342 16.0976 9.31658 16.0976 9.70711 15.7071L12 13.4142L14.2929 15.7071C14.6834 16.0976 15.3166 16.0976 15.7071 15.7071C16.0976 15.3166 16.0976 14.6834 15.7071 14.2929L13.4142 12L15.7071 9.70711Z" fill="#FF5640"/>
</svg>
