<svg width="24" height="24" viewBox="0 0 24 24" fill="none" xmlns="http://www.w3.org/2000/svg">
<path d="M12 3C7.02944 3 3 7.02944 3 12C3 16.9706 7.02944 21 12 21C16.9706 21 21 16.9706 21 12C21 10.7381 20.7409 9.53918 20.2738 8.45169C20.1569 8.22364 20.136 7.96959 20.1982 7.73767L20.3467 7.19449C20.3868 7.04486 20.3622 6.89327 20.2901 6.76911C20.2186 6.64459 20.0996 6.5475 19.95 6.50741L19.4053 6.36444C19.1581 6.2982 18.9363 6.13766 18.7982 5.89845C18.5221 5.42019 18.6859 4.80868 19.1642 4.53255C19.6425 4.25642 20.254 4.42028 20.5301 4.89854C20.6682 5.13775 20.6962 5.4102 20.6299 5.65741L20.4814 6.20059C20.4413 6.35022 20.4659 6.50181 20.538 6.62597C20.6095 6.75049 20.7285 6.84758 20.8781 6.88767L21.4228 7.03065C21.5737 7.07108 21.7152 7.14662 21.8339 7.25374C21.9383 7.34672 22.0246 7.46318 22.0843 7.59963C22.6736 8.94843 23 10.4374 23 12C23 18.0751 18.0751 23 12 23C5.92487 23 1 18.0751 1 12C1 5.92487 5.92487 1 12 1C13.5626 1 15.0516 1.32642 16.4004 1.91573C16.9065 2.13685 17.1375 2.72637 16.9164 3.23246C16.6952 3.73855 16.1057 3.96956 15.5996 3.74844C14.4986 3.26737 13.2818 3 12 3Z" fill="#FF5640"/>
<path d="M13 6C13 5.44772 12.5523 5 12 5C11.4477 5 11 5.44772 11 6V12C11 12.2652 11.1054 12.5196 11.2929 12.7071L15.2929 16.7071C15.6834 17.0976 16.3166 17.0976 16.7071 16.7071C17.0976 16.3166 17.0976 15.6834 16.7071 15.2929L13 11.5858V6Z" fill="#FF5640"/>
</svg>
